<svg xmlns="http://www.w3.org/2000/svg" xmlns:xlink="http://www.w3.org/1999/xlink" width="1799.5" height="530" viewBox="0 0 1799.5 530"><defs><linearGradient id="a" x1="0.207" y1="0.853" x2="0.907" y2="0.416" gradientUnits="objectBoundingBox"><stop offset="0" stop-color="#c23764"/><stop offset="1" stop-color="#1e2671"/></linearGradient><linearGradient id="c" x1="0.718" y1="0.458" x2="0.076" y2="0.974" xlink:href="#a"/><filter id="d" x="553.5" y="0" width="1246" height="530" filterUnits="userSpaceOnUse"><feOffset dx="0.5" dy="0.5" input="SourceAlpha"/><feGaussianBlur stdDeviation="3" result="e"/><feFlood/><feComposite operator="in" in2="e"/><feComposite in="SourceGraphic"/></filter></defs><g transform="translate(1585 2548.5)"><g transform="translate(-17278 -4678)"><circle cx="256" cy="256" r="256" transform="translate(15693 2138)" fill="#fff"/><g transform="translate(15707.164 2152.164)"><path d="M7099.347,2234.452c-.009,0,66.944-13.613,112.392,32.448.252,0,40.393,43.276,41.655,86.045-.252,1.013,6.062,51.439-14.641,101.358,0,.316-19.69,52.514-67.411,81.554-.251-.316-29.033,25.751-112.6,22.714,0,0-68.558-3.559-119.39-61.572.241.195-55.456-59.394-56.639-158.253-.007-.01-4.733,44.056,10.226,91.528.194.39,15.534,49.691,48.744,86.825,0-.049,40.638,49.4,104.533,70.375.194.146,71.1,28.968,155.673,0,.254-.117,76.122-21.121,115-91.982,0,0,40.576-65.94,14.323-144.572,0-.658-19.667-68.268-92.46-107.419C7238.493,2243.173,7164.745,2206.905,7099.347,2234.452Z" transform="translate(-6882 -2116.569)" fill="url(#a)"/><path d="M217.345,10.323c-.01,0,66.947-13.613,112.391,32.447.252,0,40.395,43.276,41.657,86.046-.252,1.012,6.06,51.438-14.643,101.358,0,.316-19.692,52.514-67.409,81.554-.253-.316-29.034,25.751-112.6,22.714,0,0-68.558-3.559-119.391-61.572.243.195-55.454-59.394-56.638-158.252,0-.011-4.734,44.056,10.225,91.528.194.39,15.536,49.691,48.746,86.825,0-.049,40.638,49.4,104.531,70.375.194.146,71.1,28.968,155.675,0,.253-.117,76.12-21.122,115-91.984,0,0,40.577-65.94,14.32-144.571,0-.658-19.666-68.268-92.459-107.419C356.492,19.044,282.743-17.224,217.345,10.323Z" transform="translate(483.818 376.253) rotate(180)" fill="url(#a)"/><path d="M49.9,3.8a3,3,0,0,1,5.009,0l46.831,71.027a3,3,0,0,1-2.5,4.651H5.571a3,3,0,0,1-2.5-4.651Z" transform="translate(286.119 183.228) rotate(90)" fill="url(#c)"/></g></g><g transform="matrix(1, 0, 0, 1, -1585, -2548.5)" filter="url(#d)"><text transform="translate(562 416.5)" fill="#fff" font-size="437.2" font-family="Exotic350BT-DemiBold, Exotc350 DmBd BT" font-weight="300" letter-spacing="0.07em"><tspan x="0" y="0">Sathio</tspan></text></g></g></svg>